<svg width="44" height="44" viewBox="0 0 44 44" fill="none" xmlns="http://www.w3.org/2000/svg">
<mask id="mask0_832_6303" style="mask-type:alpha" maskUnits="userSpaceOnUse" x="0" y="0" width="44" height="44">
<rect width="44" height="44" fill="#D9D9D9"/>
</mask>
<g mask="url(#mask0_832_6303)">
<path d="M16.6667 28.6667C17.0444 28.6667 17.3611 28.5389 17.6167 28.2833C17.8722 28.0278 18 27.7111 18 27.3333C18 26.9556 17.8722 26.6389 17.6167 26.3833C17.3611 26.1278 17.0444 26 16.6667 26C16.2889 26 15.9722 26.1278 15.7167 26.3833C15.4611 26.6389 15.3333 26.9556 15.3333 27.3333C15.3333 27.7111 15.4611 28.0278 15.7167 28.2833C15.9722 28.5389 16.2889 28.6667 16.6667 28.6667ZM16.6667 23.3333C17.0444 23.3333 17.3611 23.2056 17.6167 22.95C17.8722 22.6944 18 22.3778 18 22C18 21.6222 17.8722 21.3056 17.6167 21.05C17.3611 20.7944 17.0444 20.6667 16.6667 20.6667C16.2889 20.6667 15.9722 20.7944 15.7167 21.05C15.4611 21.3056 15.3333 21.6222 15.3333 22C15.3333 22.3778 15.4611 22.6944 15.7167 22.95C15.9722 23.2056 16.2889 23.3333 16.6667 23.3333ZM16.6667 18C17.0444 18 17.3611 17.8722 17.6167 17.6167C17.8722 17.3611 18 17.0444 18 16.6667C18 16.2889 17.8722 15.9722 17.6167 15.7167C17.3611 15.4611 17.0444 15.3333 16.6667 15.3333C16.2889 15.3333 15.9722 15.4611 15.7167 15.7167C15.4611 15.9722 15.3333 16.2889 15.3333 16.6667C15.3333 17.0444 15.4611 17.3611 15.7167 17.6167C15.9722 17.8722 16.2889 18 16.6667 18ZM20.6667 28.6667H28.6667V26H20.6667V28.6667ZM20.6667 23.3333H28.6667V20.6667H20.6667V23.3333ZM20.6667 18H28.6667V15.3333H20.6667V18ZM12.6667 34C11.9333 34 11.3056 33.7389 10.7833 33.2167C10.2611 32.6944 10 32.0667 10 31.3333V12.6667C10 11.9333 10.2611 11.3056 10.7833 10.7833C11.3056 10.2611 11.9333 10 12.6667 10H31.3333C32.0667 10 32.6944 10.2611 33.2167 10.7833C33.7389 11.3056 34 11.9333 34 12.6667V31.3333C34 32.0667 33.7389 32.6944 33.2167 33.2167C32.6944 33.7389 32.0667 34 31.3333 34H12.6667ZM12.6667 31.3333H31.3333V12.6667H12.6667V31.3333Z" fill="#1C1B1F"/>
</g>
</svg>
