<svg width="44" height="44" viewBox="0 0 44 44" fill="none" xmlns="http://www.w3.org/2000/svg">
<mask id="mask0_832_6297" style="mask-type:alpha" maskUnits="userSpaceOnUse" x="0" y="0" width="44" height="44">
<rect width="44" height="44" fill="#D9D9D9"/>
</mask>
<g mask="url(#mask0_832_6297)">
<path d="M7.33366 38.5C6.32533 38.5 5.46213 38.141 4.74408 37.4229C4.02602 36.7049 3.66699 35.8417 3.66699 34.8333V29.3333H40.3337V34.8333C40.3337 35.8417 39.9746 36.7049 39.2566 37.4229C38.5385 38.141 37.6753 38.5 36.667 38.5H7.33366ZM7.33366 33V34.8333H36.667V33H7.33366ZM22.0003 24.75C20.9003 24.75 20.0295 25.0556 19.3878 25.6667C18.7462 26.2778 17.5698 26.5833 15.8587 26.5833C14.1475 26.5833 12.9864 26.2778 12.3753 25.6667C11.7642 25.0556 10.9087 24.75 9.80866 24.75C8.70866 24.75 7.83783 25.0556 7.19616 25.6667C6.55449 26.2778 5.3781 26.5833 3.66699 26.5833V22.9167C4.76699 22.9167 5.63783 22.6111 6.27949 22C6.92116 21.3889 8.09755 21.0833 9.80866 21.0833C11.5198 21.0833 12.6809 21.3889 13.292 22C13.9031 22.6111 14.7587 22.9167 15.8587 22.9167C16.9587 22.9167 17.8295 22.6111 18.4712 22C19.1128 21.3889 20.2892 21.0833 22.0003 21.0833C23.7114 21.0833 24.8878 21.3889 25.5295 22C26.1712 22.6111 27.042 22.9167 28.142 22.9167C29.242 22.9167 30.0975 22.6111 30.7087 22C31.3198 21.3889 32.4809 21.0833 34.192 21.0833C35.9031 21.0833 37.1101 21.3889 37.8128 22C38.5156 22.6111 39.3559 22.9167 40.3337 22.9167V26.5833C38.6225 26.5833 37.4767 26.2778 36.8962 25.6667C36.3156 25.0556 35.4753 24.75 34.3753 24.75C33.2753 24.75 32.3892 25.0556 31.717 25.6667C31.0448 26.2778 29.8531 26.5833 28.142 26.5833C26.4309 26.5833 25.2545 26.2778 24.6128 25.6667C23.9712 25.0556 23.1003 24.75 22.0003 24.75ZM3.66699 18.3333V16.5C3.66699 12.9861 5.32463 10.2743 8.63991 8.36458C11.9552 6.45486 16.4087 5.5 22.0003 5.5C27.592 5.5 32.0455 6.45486 35.3607 8.36458C38.676 10.2743 40.3337 12.9861 40.3337 16.5V18.3333H3.66699ZM22.0003 9.16667C18.2114 9.16667 15.0413 9.64028 12.4899 10.5875C9.93852 11.5347 8.31144 12.8944 7.60866 14.6667H36.392C35.6892 12.8944 34.0621 11.5347 31.5107 10.5875C28.9594 9.64028 25.7892 9.16667 22.0003 9.16667Z" fill="#1C1B1F"/>
</g>
</svg>
