<svg width="24" height="24" viewBox="0 0 24 24" fill="none" xmlns="http://www.w3.org/2000/svg">
<mask id="mask0_832_6318" style="mask-type:alpha" maskUnits="userSpaceOnUse" x="0" y="0" width="24" height="24">
<rect width="24" height="24" fill="#D9D9D9"/>
</mask>
<g mask="url(#mask0_832_6318)">
<path d="M3.95 21V8.1L2 3.85L3.8 3L6.15 8.05H17.75L20.1 3L21.9 3.85L19.95 8.1V21H3.95ZM9.95 14H13.95C14.2333 14 14.4708 13.9042 14.6625 13.7125C14.8542 13.5208 14.95 13.2833 14.95 13C14.95 12.7167 14.8542 12.4792 14.6625 12.2875C14.4708 12.0958 14.2333 12 13.95 12H9.95C9.66667 12 9.42917 12.0958 9.2375 12.2875C9.04583 12.4792 8.95 12.7167 8.95 13C8.95 13.2833 9.04583 13.5208 9.2375 13.7125C9.42917 13.9042 9.66667 14 9.95 14ZM5.95 19H17.95V10.05H5.95V19Z" fill="#1C1B1F"/>
</g>
</svg>
