<svg width="14" height="15" viewBox="0 0 14 15" fill="none" xmlns="http://www.w3.org/2000/svg">
<path d="M7.00033 1.66675C4.74283 1.66675 2.91699 3.49258 2.91699 5.75008C2.91699 8.81258 7.00033 13.3334 7.00033 13.3334C7.00033 13.3334 11.0837 8.81258 11.0837 5.75008C11.0837 3.49258 9.25783 1.66675 7.00033 1.66675ZM3.20866 5.75008C3.02289 4.00451 5.1902 1.81234 7.00033 1.95841C8.77083 1.77394 10.9544 3.95291 10.792 5.75008C10.8643 7.64374 8.31102 11.3999 7.00033 12.7501C5.59473 11.2786 3.03692 7.48923 3.20866 5.75008Z" fill="#818181" stroke="#818181" stroke-width="0.5"/>
<path d="M7.00033 7.20842C7.80574 7.20842 8.45866 6.5555 8.45866 5.75008C8.45866 4.94467 7.80574 4.29175 7.00033 4.29175C6.19491 4.29175 5.54199 4.94467 5.54199 5.75008C5.54199 6.5555 6.19491 7.20842 7.00033 7.20842Z" stroke="#818181"/>
</svg>
