<svg width="144" height="81" viewBox="0 0 144 81" fill="none" xmlns="http://www.w3.org/2000/svg">
<path d="M91.0527 22.3682C91.0529 16.2738 99.168 14.1814 102.115 19.5156L134.368 77.8994C128.337 79.7514 121.63 77.197 118.463 71.4531L101.796 41.2256V48.6953C101.796 65.5772 88.6261 79.3808 72 80.3975C55.3743 79.3807 42.2046 65.5778 42.2041 48.6963V41.2266L25.5371 71.4541C22.3697 77.1976 15.6631 79.7525 9.63184 77.9004L41.8848 19.5166C44.8318 14.1818 52.9473 16.2744 52.9473 22.3691V50.5117C52.948 61.0681 61.4634 69.6342 72 69.7188C82.537 69.6344 91.0525 61.0676 91.0527 50.5107V22.3682ZM74.5693 22.4229C74.5695 -0.624433 105.147 -8.58594 116.428 11.377L116.56 11.6133L142.306 58.3066C145.447 64.0035 144.077 70.97 139.386 75.0957L107.147 16.7363C101.329 6.20375 85.3048 10.3351 85.3047 22.3682V50.5107C85.3045 57.8931 79.3624 63.8865 72 63.9707C64.6379 63.8864 58.696 57.8936 58.6953 50.5117V22.3691C58.6953 10.3359 42.672 6.20444 36.8535 16.7373L4.61426 75.0967C-0.0764976 70.9711 -1.44627 64.0042 1.69434 58.3076L27.4404 11.6152L27.5723 11.3789C38.853 -8.58478 69.4305 -0.623717 69.4307 22.4238V48.6963C69.431 50.4966 70.48 52.0519 72 52.7852C73.5203 52.052 74.5692 50.496 74.5693 48.6953V22.4229Z" fill="#FF8904"/>
</svg>
