<svg width="40" height="40" viewBox="0 0 40 40" fill="none" xmlns="http://www.w3.org/2000/svg">
<path d="M35 6.5H32C31.175 6.5 30.5 7.175 30.5 8V21.5C30.5 22.325 31.175 23 32 23H35V6.5ZM5.255 17.18C5.09 17.555 5 17.96 5 18.38V20C5 21.65 6.35 23 8 23H16.25L14.87 29.975C14.795 30.305 14.84 30.665 14.99 30.965C15.3311 31.6406 15.7766 32.2582 16.31 32.795L17 33.5L26.615 23.885C27.185 23.315 27.5 22.55 27.5 21.755V9.995C27.496 9.06669 27.1245 8.17776 26.4667 7.52275C25.8088 6.86774 24.9183 6.49999 23.99 6.5H11.825C10.775 6.5 9.785 7.055 9.245 7.955L5.255 17.18Z" fill="#818181"/>
</svg>
