<svg width="40" height="40" viewBox="0 0 40 40" fill="none" xmlns="http://www.w3.org/2000/svg">
<path d="M5 33.5H8C8.825 33.5 9.5 32.825 9.5 32V18.5C9.5 17.675 8.825 17 8 17H5V33.5ZM34.745 22.82C34.91 22.445 35 22.04 35 21.62V20C35 18.35 33.65 17 32 17H23.75L25.13 10.025C25.205 9.695 25.16 9.335 25.01 9.035C24.6689 8.35942 24.2234 7.74184 23.69 7.205L23 6.5L13.385 16.115C12.815 16.685 12.5 17.45 12.5 18.245V30.005C12.504 30.9333 12.8755 31.8222 13.5333 32.4773C14.1912 33.1323 15.0817 33.5 16.01 33.5H28.175C29.225 33.5 30.215 32.945 30.755 32.045L34.745 22.82Z" fill="#6D6D6D"/>
</svg>
