<svg width="150" height="150" viewBox="0 0 150 150" fill="none" xmlns="http://www.w3.org/2000/svg">
<path d="M0 150L29.5097 62.889L82.6358 118.728L0 150ZM10.5754 138.812L71.1024 116.103L31.9917 74.5094L10.5754 138.812ZM77.9538 86.5772L73.5231 81.8897L118.936 33.8455C122.769 29.9007 127.551 27.8923 133.282 27.8203C139.011 27.7482 143.793 29.7401 147.628 33.7958L150 36.3071L145.884 40.9946L143.416 38.2197C140.619 35.2603 137.309 33.772 133.486 33.7548C129.662 33.7389 126.336 35.2272 123.507 38.2197L77.9538 86.5772ZM50.973 58.4003L46.5423 53.8792L52.0434 48.0593C55.5938 44.3033 57.3192 39.9118 57.2198 34.885C57.1204 29.8597 55.3949 25.5734 52.0434 22.0263L46.7935 16.4743L51.2263 11.9532L56.2229 17.2394C60.8845 22.0601 63.1813 28.0033 63.1132 35.0687C63.0451 42.1342 60.7327 48.0773 56.1759 52.8981L50.973 58.4003ZM64.5349 72.3807L60.2615 67.8596L88.4822 37.8371C91.2794 34.9888 92.6699 31.384 92.6535 27.0228C92.6386 22.6616 91.2325 19.0014 88.4352 16.0421L77.5453 4.52109L81.8187 0L92.96 11.6204C96.7636 15.7871 98.7069 20.9212 98.79 27.0228C98.8744 33.123 96.9468 38.2016 93.0069 42.2588L64.5349 72.3807ZM91.4687 100.925L87.0359 96.4039L91.9243 91.2323C96.5859 86.3006 102.201 83.7908 108.769 83.7029C115.337 83.6136 120.952 86.0348 125.614 90.9665L130.847 96.5033L126.572 101.191L121.136 95.4379C117.584 91.6818 113.503 89.8038 108.893 89.8038C104.285 89.8038 100.153 91.6818 96.496 95.4379L91.4687 100.925Z" fill="#1F1F1F"/>
</svg>
