<svg width="100" height="100" viewBox="0 0 100 100" fill="none" xmlns="http://www.w3.org/2000/svg">
<path d="M41.7304 38.1647C42.0273 36.5608 44.3256 36.5608 44.6225 38.1647L46.4593 48.0874C46.5518 48.5871 46.8958 49.0037 47.369 49.189L55.8565 52.513C57.1023 53.0009 57.1023 54.7638 55.8565 55.2516L47.369 58.5756C46.8958 58.761 46.5518 59.1775 46.4593 59.6773L44.6225 69.6C44.3256 71.2038 42.0273 71.2038 41.7304 69.6L39.8937 59.6773C39.8012 59.1775 39.4572 58.761 38.9839 58.5756L30.4964 55.2516C29.2507 54.7638 29.2507 53.0009 30.4964 52.513L38.9839 49.189C39.4572 49.0037 39.8012 48.5871 39.8937 48.0874L41.7304 38.1647Z" fill="#6D6D6D"/>
<path d="M60.1033 33.091C60.3458 31.4101 62.7719 31.4101 63.0144 33.091L63.789 38.4614C63.8576 38.9372 64.1545 39.3495 64.5841 39.5654L69.9739 42.2743C71.0541 42.8172 71.0541 44.3593 69.9739 44.9022L64.5841 47.6111C64.1545 47.827 63.8576 48.2392 63.789 48.7151L63.0144 54.0855C62.7719 55.7663 60.3458 55.7663 60.1033 54.0855L59.3287 48.7151C59.26 48.2393 58.9631 47.827 58.5336 47.6111L53.1438 44.9022C52.0635 44.3593 52.0635 42.8172 53.1438 42.2743L58.5336 39.5654C58.9631 39.3495 59.26 38.9372 59.3287 38.4614L60.1033 33.091Z" fill="#D9D9D9"/>
</svg>
