<svg width="20" height="20" viewBox="0 0 20 20" fill="none" xmlns="http://www.w3.org/2000/svg">
<path d="M9.99967 1.66675C6.31634 1.66675 3.33301 2.08341 3.33301 5.00008V12.9167C3.33301 14.5251 4.64134 15.8334 6.24967 15.8334L4.99967 17.0834V17.5001H14.9997V17.0834L13.7497 15.8334C15.358 15.8334 16.6663 14.5251 16.6663 12.9167V5.00008C16.6663 2.08341 13.683 1.66675 9.99967 1.66675ZM6.24967 14.1667C5.55801 14.1667 4.99967 13.6084 4.99967 12.9167C4.99967 12.2251 5.55801 11.6667 6.24967 11.6667C6.94134 11.6667 7.49967 12.2251 7.49967 12.9167C7.49967 13.6084 6.94134 14.1667 6.24967 14.1667ZM9.16634 9.16675H4.99967V5.00008H9.16634V9.16675ZM13.7497 14.1667C13.058 14.1667 12.4997 13.6084 12.4997 12.9167C12.4997 12.2251 13.058 11.6667 13.7497 11.6667C14.4413 11.6667 14.9997 12.2251 14.9997 12.9167C14.9997 13.6084 14.4413 14.1667 13.7497 14.1667ZM14.9997 9.16675H10.833V5.00008H14.9997V9.16675Z" fill="white"/>
</svg>
