<svg width="24" height="24" viewBox="0 0 24 24" fill="none" xmlns="http://www.w3.org/2000/svg">
<path d="M6.66667 20V12.68C5.86667 12.4933 5.22222 12.1133 4.73333 11.54C4.24444 10.9667 4 10.32 4 9.6V4H5.77778V8.8H6.66667V4H8.44444V8.8H9.33333V4H11.1111V9.6C11.1111 10.32 10.8667 10.9667 10.3778 11.54C9.88889 12.1133 9.24444 12.4933 8.44444 12.68V20H6.66667ZM15.5556 20V12.38C14.7556 12.14 14.1111 11.6367 13.6222 10.87C13.1333 10.1033 12.8889 9.23333 12.8889 8.26C12.8889 7.07333 13.237 6.06667 13.9333 5.24C14.6296 4.41333 15.4667 4 16.4444 4C17.4222 4 18.2593 4.41667 18.9556 5.25C19.6519 6.08333 20 7.09333 20 8.28C20 9.25333 19.7556 10.12 19.2667 10.88C18.7778 11.64 18.1333 12.14 17.3333 12.38V20H15.5556Z" fill="black"/>
</svg>
