<svg width="17" height="17" viewBox="0 0 17 17" fill="none" xmlns="http://www.w3.org/2000/svg">
<path d="M2.4 14.6C1.65 13.85 1.0625 12.9833 0.6375 12C0.2125 11.0167 0 10 0 8.95001C0 7.90001 0.2 6.86251 0.6 5.83751C1 4.81251 1.65 3.85001 2.55 2.95001C3.13333 2.36668 3.85417 1.86668 4.7125 1.45001C5.57083 1.03335 6.5875 0.70418 7.7625 0.462513C8.9375 0.220847 10.2792 0.0750134 11.7875 0.0250134C13.2958 -0.0249866 14.9833 0.0333467 16.85 0.200013C16.9833 1.96668 17.025 3.59168 16.975 5.07501C16.925 6.55835 16.7875 7.89585 16.5625 9.08751C16.3375 10.2792 16.0208 11.3208 15.6125 12.2125C15.2042 13.1042 14.7 13.85 14.1 14.45C13.2167 15.3333 12.2792 15.9792 11.2875 16.3875C10.2958 16.7958 9.28333 17 8.25 17C7.16667 17 6.10833 16.7875 5.075 16.3625C4.04167 15.9375 3.15 15.35 2.4 14.6ZM5.2 14.2C5.68333 14.4833 6.17917 14.6875 6.6875 14.8125C7.19583 14.9375 7.71667 15 8.25 15C9.01667 15 9.775 14.8458 10.525 14.5375C11.275 14.2292 11.9917 13.7333 12.675 13.05C12.975 12.75 13.2792 12.3292 13.5875 11.7875C13.8958 11.2458 14.1625 10.5375 14.3875 9.66251C14.6125 8.78751 14.7833 7.72918 14.9 6.48751C15.0167 5.24585 15.0333 3.76668 14.95 2.05001C14.1333 2.01668 13.2125 2.00418 12.1875 2.01251C11.1625 2.02085 10.1417 2.10001 9.125 2.25001C8.10833 2.40001 7.14167 2.64168 6.225 2.97501C5.30833 3.30835 4.55833 3.76668 3.975 4.35001C3.225 5.10001 2.70833 5.84168 2.425 6.57501C2.14167 7.30835 2 8.01668 2 8.70001C2 9.68335 2.1875 10.5458 2.5625 11.2875C2.9375 12.0292 3.26667 12.55 3.55 12.85C4.25 11.5167 5.175 10.2375 6.325 9.01251C7.475 7.78751 8.81667 6.78335 10.35 6.00001C9.15 7.05001 8.10417 8.23751 7.2125 9.56251C6.32083 10.8875 5.65 12.4333 5.2 14.2Z" fill="black"/>
</svg>
