<svg width="24" height="24" viewBox="0 0 24 24" fill="none" xmlns="http://www.w3.org/2000/svg">
<path d="M4 20V14.9091C4 13.903 4.43333 13.0455 5.3 12.3364C6.16667 11.6273 7.21481 11.2727 8.44444 11.2727H9.33333V5.45455C9.33333 5.05455 9.50741 4.71212 9.85556 4.42727C10.2037 4.14242 10.6222 4 11.1111 4H12.8889C13.3778 4 13.7963 4.14242 14.1444 4.42727C14.4926 4.71212 14.6667 5.05455 14.6667 5.45455V11.2727H15.5556C16.7852 11.2727 17.8333 11.6273 18.7 12.3364C19.5667 13.0455 20 13.903 20 14.9091V20H4ZM5.77778 18.5455H7.55556V16.3636C7.55556 16.1576 7.64074 15.9848 7.81111 15.8455C7.98148 15.7061 8.19259 15.6364 8.44444 15.6364C8.6963 15.6364 8.90741 15.7061 9.07778 15.8455C9.24815 15.9848 9.33333 16.1576 9.33333 16.3636V18.5455H11.1111V16.3636C11.1111 16.1576 11.1963 15.9848 11.3667 15.8455C11.537 15.7061 11.7481 15.6364 12 15.6364C12.2519 15.6364 12.463 15.7061 12.6333 15.8455C12.8037 15.9848 12.8889 16.1576 12.8889 16.3636V18.5455H14.6667V16.3636C14.6667 16.1576 14.7519 15.9848 14.9222 15.8455C15.0926 15.7061 15.3037 15.6364 15.5556 15.6364C15.8074 15.6364 16.0185 15.7061 16.1889 15.8455C16.3593 15.9848 16.4444 16.1576 16.4444 16.3636V18.5455H18.2222V14.9091C18.2222 14.303 17.963 13.7879 17.4444 13.3636C16.9259 12.9394 16.2963 12.7273 15.5556 12.7273H8.44444C7.7037 12.7273 7.07407 12.9394 6.55556 13.3636C6.03704 13.7879 5.77778 14.303 5.77778 14.9091V18.5455ZM12.8889 11.2727V5.45455H11.1111V11.2727H12.8889Z" fill="black"/>
</svg>
