<svg width="24" height="24" viewBox="0 0 24 24" fill="none" xmlns="http://www.w3.org/2000/svg">
<path d="M6.88889 20V17.0909H6.22222C5.6 17.0909 5.07407 16.9152 4.64444 16.5636C4.21481 16.2121 4 15.7818 4 15.2727C4 14.7636 4.21481 14.3333 4.64444 13.9818C5.07407 13.6303 5.6 13.4545 6.22222 13.4545H6.88889V12.7273H4V9.09091H6.88889V8.36364H6.22222C5.6 8.36364 5.07407 8.18788 4.64444 7.83636C4.21481 7.48485 4 7.05455 4 6.54545C4 6.03636 4.21481 5.60606 4.64444 5.25455C5.07407 4.90303 5.6 4.72727 6.22222 4.72727H6.88889V4H8.22222V4.72727H8.88889C9.51111 4.72727 10.037 4.90303 10.4667 5.25455C10.8963 5.60606 11.1111 6.03636 11.1111 6.54545C11.1111 7.05455 10.8963 7.48485 10.4667 7.83636C10.037 8.18788 9.51111 8.36364 8.88889 8.36364H8.22222V9.09091H11.1111V12.7273H8.22222V13.4545H8.88889C9.51111 13.4545 10.037 13.6303 10.4667 13.9818C10.8963 14.3333 11.1111 14.7636 11.1111 15.2727C11.1111 15.7818 10.8963 16.2121 10.4667 16.5636C10.037 16.9152 9.51111 17.0909 8.88889 17.0909H8.22222V20H6.88889ZM15.7778 20V17.0909H15.1111C14.4889 17.0909 13.963 16.9152 13.5333 16.5636C13.1037 16.2121 12.8889 15.7818 12.8889 15.2727C12.8889 14.7636 13.1037 14.3333 13.5333 13.9818C13.963 13.6303 14.4889 13.4545 15.1111 13.4545H15.7778V12.7273H12.8889V9.09091H15.7778V8.36364H15.1111C14.4889 8.36364 13.963 8.18788 13.5333 7.83636C13.1037 7.48485 12.8889 7.05455 12.8889 6.54545C12.8889 6.03636 13.1037 5.60606 13.5333 5.25455C13.963 4.90303 14.4889 4.72727 15.1111 4.72727H15.7778V4H17.1111V4.72727H17.7778C18.4 4.72727 18.9259 4.90303 19.3556 5.25455C19.7852 5.60606 20 6.03636 20 6.54545C20 7.05455 19.7852 7.48485 19.3556 7.83636C18.9259 8.18788 18.4 8.36364 17.7778 8.36364H17.1111V9.09091H20V12.7273H17.1111V13.4545H17.7778C18.4 13.4545 18.9259 13.6303 19.3556 13.9818C19.7852 14.3333 20 14.7636 20 15.2727C20 15.7818 19.7852 16.2121 19.3556 16.5636C18.9259 16.9152 18.4 17.0909 17.7778 17.0909H17.1111V20H15.7778ZM6.22222 6.90909H8.88889C9.00741 6.90909 9.11111 6.87273 9.2 6.8C9.28889 6.72727 9.33333 6.64242 9.33333 6.54545C9.33333 6.44849 9.28889 6.36364 9.2 6.29091C9.11111 6.21818 9.00741 6.18182 8.88889 6.18182H6.22222C6.1037 6.18182 6 6.21818 5.91111 6.29091C5.82222 6.36364 5.77778 6.44849 5.77778 6.54545C5.77778 6.64242 5.82222 6.72727 5.91111 6.8C6 6.87273 6.1037 6.90909 6.22222 6.90909ZM15.1111 6.90909H17.7778C17.8963 6.90909 18 6.87273 18.0889 6.8C18.1778 6.72727 18.2222 6.64242 18.2222 6.54545C18.2222 6.44849 18.1778 6.36364 18.0889 6.29091C18 6.21818 17.8963 6.18182 17.7778 6.18182H15.1111C14.9926 6.18182 14.8889 6.21818 14.8 6.29091C14.7111 6.36364 14.6667 6.44849 14.6667 6.54545C14.6667 6.64242 14.7111 6.72727 14.8 6.8C14.8889 6.87273 14.9926 6.90909 15.1111 6.90909ZM5.77778 11.2727H9.33333V10.5455H5.77778V11.2727ZM14.6667 11.2727H18.2222V10.5455H14.6667V11.2727ZM6.22222 15.6364H8.88889C9.00741 15.6364 9.11111 15.6 9.2 15.5273C9.28889 15.4545 9.33333 15.3697 9.33333 15.2727C9.33333 15.1758 9.28889 15.0909 9.2 15.0182C9.11111 14.9455 9.00741 14.9091 8.88889 14.9091H6.22222C6.1037 14.9091 6 14.9455 5.91111 15.0182C5.82222 15.0909 5.77778 15.1758 5.77778 15.2727C5.77778 15.3697 5.82222 15.4545 5.91111 15.5273C6 15.6 6.1037 15.6364 6.22222 15.6364ZM15.1111 15.6364H17.7778C17.8963 15.6364 18 15.6 18.0889 15.5273C18.1778 15.4545 18.2222 15.3697 18.2222 15.2727C18.2222 15.1758 18.1778 15.0909 18.0889 15.0182C18 14.9455 17.8963 14.9091 17.7778 14.9091H15.1111C14.9926 14.9091 14.8889 14.9455 14.8 15.0182C14.7111 15.0909 14.6667 15.1758 14.6667 15.2727C14.6667 15.3697 14.7111 15.4545 14.8 15.5273C14.8889 15.6 14.9926 15.6364 15.1111 15.6364Z" fill="black"/>
</svg>
