<svg width="177" height="99" viewBox="0 0 177 99" fill="none" xmlns="http://www.w3.org/2000/svg">
<path d="M111.919 27.4941C111.919 20.0032 121.895 17.4306 125.518 23.9873L165.16 95.752C157.747 98.0277 149.504 94.8878 145.611 87.8281L125.124 50.6738V59.8545C125.124 80.6051 108.936 97.5717 88.5 98.8213V98.8223C68.0639 97.5725 51.8763 80.6049 51.876 59.8545V50.6738L31.3896 87.8291C27.4966 94.8887 19.2531 98.028 11.8398 95.752L51.4834 23.9883C55.1059 17.4313 65.0807 20.0031 65.0811 27.4941V62.0859C65.0814 75.0619 75.5485 85.5914 88.5 85.6953L89.1055 85.6826C101.776 85.2617 111.919 74.8592 111.919 62.0859V27.4941ZM91.6582 27.5615C91.6585 -0.767468 129.243 -10.5536 143.109 13.9844L143.271 14.2754L174.918 71.6689C178.779 78.6712 177.094 87.2336 171.328 92.3047L131.702 20.5713C124.55 7.62509 104.855 12.7037 104.854 27.4941V62.0859C104.854 71.1599 97.5496 78.5264 88.5 78.6299V78.6309C79.4505 78.5272 72.1469 71.1599 72.1465 62.0859V27.4941C72.1462 12.7038 52.451 7.62559 45.2988 20.5713L5.67285 92.3057C-0.0937203 87.2346 -1.77782 78.6715 2.08301 71.6689L33.7285 14.2754L33.8906 13.9854C47.7566 -10.5529 85.3423 -0.767408 85.3428 27.5615V59.8545C85.343 62.0673 86.6322 63.9786 88.5 64.8799V64.8818C90.3687 63.9807 91.658 62.0678 91.6582 59.8545V27.5615Z" fill="#FF6900"/>
</svg>
