<svg width="44" height="44" viewBox="0 0 44 44" fill="none" xmlns="http://www.w3.org/2000/svg">
<mask id="mask0_832_6527" style="mask-type:alpha" maskUnits="userSpaceOnUse" x="0" y="0" width="44" height="44">
<rect width="44" height="44" fill="#D9D9D9"/>
</mask>
<g mask="url(#mask0_832_6527)">
<path d="M7.33268 38.5C6.32435 38.5 5.46115 38.141 4.7431 37.4229C4.02504 36.7049 3.66602 35.8417 3.66602 34.8333V29.3333H40.3327V34.8333C40.3327 35.8417 39.9737 36.7049 39.2556 37.4229C38.5375 38.141 37.6744 38.5 36.666 38.5H7.33268ZM7.33268 33V34.8333H36.666V33H7.33268ZM21.9993 24.75C20.8993 24.75 20.0285 25.0556 19.3868 25.6667C18.7452 26.2778 17.5688 26.5833 15.8577 26.5833C14.1466 26.5833 12.9855 26.2778 12.3743 25.6667C11.7632 25.0556 10.9077 24.75 9.80768 24.75C8.70768 24.75 7.83685 25.0556 7.19518 25.6667C6.55352 26.2778 5.37713 26.5833 3.66602 26.5833V22.9167C4.76602 22.9167 5.63685 22.6111 6.27852 22C6.92018 21.3889 8.09657 21.0833 9.80768 21.0833C11.5188 21.0833 12.6799 21.3889 13.291 22C13.9021 22.6111 14.7577 22.9167 15.8577 22.9167C16.9577 22.9167 17.8285 22.6111 18.4702 22C19.1118 21.3889 20.2882 21.0833 21.9993 21.0833C23.7105 21.0833 24.8869 21.3889 25.5285 22C26.1702 22.6111 27.041 22.9167 28.141 22.9167C29.241 22.9167 30.0966 22.6111 30.7077 22C31.3188 21.3889 32.4799 21.0833 34.191 21.0833C35.9021 21.0833 37.1091 21.3889 37.8119 22C38.5146 22.6111 39.3549 22.9167 40.3327 22.9167V26.5833C38.6216 26.5833 37.4757 26.2778 36.8952 25.6667C36.3146 25.0556 35.4743 24.75 34.3743 24.75C33.2743 24.75 32.3882 25.0556 31.716 25.6667C31.0438 26.2778 29.8521 26.5833 28.141 26.5833C26.4299 26.5833 25.2535 26.2778 24.6118 25.6667C23.9702 25.0556 23.0993 24.75 21.9993 24.75ZM3.66602 18.3333V16.5C3.66602 12.9861 5.32365 10.2743 8.63893 8.36458C11.9542 6.45486 16.4077 5.5 21.9993 5.5C27.591 5.5 32.0445 6.45486 35.3598 8.36458C38.675 10.2743 40.3327 12.9861 40.3327 16.5V18.3333H3.66602ZM21.9993 9.16667C18.2105 9.16667 15.0403 9.64028 12.4889 10.5875C9.93754 11.5347 8.31046 12.8944 7.60768 14.6667H36.391C35.6882 12.8944 34.0612 11.5347 31.5098 10.5875C28.9584 9.64028 25.7882 9.16667 21.9993 9.16667Z" fill="#1C1B1F"/>
</g>
</svg>
