<svg width="44" height="44" viewBox="0 0 44 44" fill="none" xmlns="http://www.w3.org/2000/svg">
<mask id="mask0_832_6435" style="mask-type:alpha" maskUnits="userSpaceOnUse" x="0" y="0" width="44" height="44">
<rect width="44" height="44" fill="#D9D9D9"/>
</mask>
<g mask="url(#mask0_832_6435)">
<path d="M29.3327 40.3332C26.2771 40.3332 23.6799 39.2637 21.541 37.1248C19.4021 34.9859 18.3327 32.3887 18.3327 29.3332C18.3327 26.2776 19.4021 23.6804 21.541 21.5415C23.6799 19.4026 26.2771 18.3332 29.3327 18.3332C32.3882 18.3332 34.9855 19.4026 37.1244 21.5415C39.2632 23.6804 40.3327 26.2776 40.3327 29.3332C40.3327 32.3887 39.2632 34.9859 37.1244 37.1248C34.9855 39.2637 32.3882 40.3332 29.3327 40.3332ZM29.3327 36.6665C31.3493 36.6665 33.0757 35.9485 34.5119 34.5123C35.948 33.0762 36.666 31.3498 36.666 29.3332C36.666 27.3165 35.948 25.5901 34.5119 24.154C33.0757 22.7179 31.3493 21.9998 29.3327 21.9998C27.316 21.9998 25.5896 22.7179 24.1535 24.154C22.7174 25.5901 21.9993 27.3165 21.9993 29.3332C21.9993 31.3498 22.7174 33.0762 24.1535 34.5123C25.5896 35.9485 27.316 36.6665 29.3327 36.6665ZM7.33268 36.6665C6.32435 36.6665 5.46115 36.3075 4.7431 35.5894C4.02504 34.8714 3.66602 34.0082 3.66602 32.9998V19.0665C3.66602 18.8221 3.68893 18.5776 3.73477 18.3332C3.7806 18.0887 3.84935 17.8443 3.94102 17.5998L7.60768 9.1665H7.33268C6.81324 9.1665 6.37782 8.99081 6.02643 8.63942C5.67504 8.28803 5.49935 7.85261 5.49935 7.33317V5.49984C5.49935 4.98039 5.67504 4.54498 6.02643 4.19359C6.37782 3.8422 6.81324 3.6665 7.33268 3.6665H20.166C20.6855 3.6665 21.1209 3.8422 21.4723 4.19359C21.8237 4.54498 21.9993 4.98039 21.9993 5.49984V7.33317C21.9993 7.85261 21.8237 8.28803 21.4723 8.63942C21.1209 8.99081 20.6855 9.1665 20.166 9.1665H19.891L22.916 16.1332C22.3355 16.4387 21.7855 16.7596 21.266 17.0957C20.7466 17.4318 20.2577 17.8137 19.7993 18.2415L15.9493 9.1665H11.5493L7.33268 19.0665V32.9998H15.1243C15.2771 33.6415 15.4834 34.2755 15.7431 34.9019C16.0028 35.5283 16.316 36.1165 16.6827 36.6665H7.33268ZM29.3327 16.4998C28.0493 16.4998 26.9646 16.0568 26.0785 15.1707C25.1924 14.2846 24.7493 13.1998 24.7493 11.9165C24.7493 10.6332 25.1924 9.54845 26.0785 8.66234C26.9646 7.77623 28.0493 7.33317 29.3327 7.33317V16.4998C29.3327 15.2165 29.7757 14.1318 30.6618 13.2457C31.548 12.3596 32.6327 11.9165 33.916 11.9165C35.1994 11.9165 36.2841 12.3596 37.1702 13.2457C38.0563 14.1318 38.4994 15.2165 38.4994 16.4998H29.3327Z" fill="#1C1B1F"/>
</g>
</svg>
