<svg width="24" height="24" viewBox="0 0 24 24" fill="none" xmlns="http://www.w3.org/2000/svg">
<mask id="mask0_832_6478" style="mask-type:alpha" maskUnits="userSpaceOnUse" x="0" y="0" width="24" height="24">
<rect width="24" height="24" fill="#D9D9D9"/>
</mask>
<g mask="url(#mask0_832_6478)">
<path d="M6 14L7.925 9H5L3.675 11H2L3 7.5L2 4H3.675L5 6H7.925L6 1H8L11.45 6H14.5C14.9167 6 15.2708 6.14583 15.5625 6.4375C15.8542 6.72917 16 7.08333 16 7.5C16 7.91667 15.8542 8.27083 15.5625 8.5625C15.2708 8.85417 14.9167 9 14.5 9H11.45L8 14H6ZM16 23L12.55 18H9.5C9.08333 18 8.72917 17.8542 8.4375 17.5625C8.14583 17.2708 8 16.9167 8 16.5C8 16.0833 8.14583 15.7292 8.4375 15.4375C8.72917 15.1458 9.08333 15 9.5 15H12.55L16 10H18L16.075 15H19L20.325 13H22L21 16.5L22 20H20.325L19 18H16.075L18 23H16Z" fill="#1C1B1F"/>
</g>
</svg>
