<svg width="24" height="24" viewBox="0 0 24 24" fill="none" xmlns="http://www.w3.org/2000/svg">
<mask id="mask0_832_6502" style="mask-type:alpha" maskUnits="userSpaceOnUse" x="0" y="0" width="24" height="24">
<rect width="24" height="24" fill="#D9D9D9"/>
</mask>
<g mask="url(#mask0_832_6502)">
<path d="M5.3 18.025C4.58333 17.225 4.02083 16.3083 3.6125 15.275C3.20417 14.2417 3 13.15 3 12C3 9.5 3.875 7.375 5.625 5.625C7.375 3.875 9.5 3 12 3V1L17 4.75L12 8.5V6.5C10.4833 6.5 9.1875 7.0375 8.1125 8.1125C7.0375 9.1875 6.5 10.4833 6.5 12C6.5 12.7667 6.64583 13.4833 6.9375 14.15C7.22917 14.8167 7.625 15.4 8.125 15.9L5.3 18.025ZM12 23L7 19.25L12 15.5V17.5C13.5167 17.5 14.8125 16.9625 15.8875 15.8875C16.9625 14.8125 17.5 13.5167 17.5 12C17.5 11.2333 17.3542 10.5167 17.0625 9.85C16.7708 9.18333 16.375 8.6 15.875 8.1L18.7 5.975C19.4167 6.775 19.9792 7.69167 20.3875 8.725C20.7958 9.75833 21 10.85 21 12C21 14.5 20.125 16.625 18.375 18.375C16.625 20.125 14.5 21 12 21V23Z" fill="#1C1B1F"/>
</g>
</svg>
