<svg width="24" height="24" viewBox="0 0 24 24" fill="none" xmlns="http://www.w3.org/2000/svg">
<mask id="mask0_832_6496" style="mask-type:alpha" maskUnits="userSpaceOnUse" x="0" y="0" width="24" height="24">
<rect width="24" height="24" fill="#D9D9D9"/>
</mask>
<g mask="url(#mask0_832_6496)">
<path d="M15 16H18C18.2833 16 18.5208 15.9042 18.7125 15.7125C18.9042 15.5208 19 15.2833 19 15V9C19 8.71667 18.9042 8.47917 18.7125 8.2875C18.5208 8.09583 18.2833 8 18 8H15C14.7167 8 14.4792 8.09583 14.2875 8.2875C14.0958 8.47917 14 8.71667 14 9V15C14 15.2833 14.0958 15.5208 14.2875 15.7125C14.4792 15.9042 14.7167 16 15 16ZM16 14V10H17V14H16ZM9 16H12C12.2833 16 12.5208 15.9042 12.7125 15.7125C12.9042 15.5208 13 15.2833 13 15V9C13 8.71667 12.9042 8.47917 12.7125 8.2875C12.5208 8.09583 12.2833 8 12 8H9C8.71667 8 8.47917 8.09583 8.2875 8.2875C8.09583 8.47917 8 8.71667 8 9V15C8 15.2833 8.09583 15.5208 8.2875 15.7125C8.47917 15.9042 8.71667 16 9 16ZM10 14V10H11V14H10ZM5 16H7V8H5V16ZM2 20V4H22V20H2ZM4 18H20V6H4V18Z" fill="#1C1B1F"/>
</g>
</svg>
