<svg width="44" height="44" viewBox="0 0 44 44" fill="none" xmlns="http://www.w3.org/2000/svg">
<mask id="mask0_832_6490" style="mask-type:alpha" maskUnits="userSpaceOnUse" x="0" y="0" width="44" height="44">
<rect width="44" height="44" fill="#D9D9D9"/>
</mask>
<g mask="url(#mask0_832_6490)">
<path d="M32.9993 24.2915L36.666 27.9582V36.6665C36.666 37.6748 36.307 38.538 35.5889 39.2561C34.8709 39.9741 34.0077 40.3332 32.9993 40.3332H7.33268C6.32435 40.3332 5.46115 39.9741 4.7431 39.2561C4.02504 38.538 3.66602 37.6748 3.66602 36.6665V10.9998C3.66602 9.9915 4.02504 9.12831 4.7431 8.41025C5.46115 7.6922 6.32435 7.33317 7.33268 7.33317H17.416C17.1716 7.88317 16.9882 8.47137 16.866 9.09775C16.7438 9.72414 16.6521 10.3582 16.591 10.9998H7.33268V36.6665H32.9993V24.2915ZM35.3827 16.3165L41.2493 22.1832L38.6827 24.7498L32.816 18.8832C32.1743 19.2498 31.4868 19.5554 30.7535 19.7998C30.0202 20.0443 29.241 20.1665 28.416 20.1665C26.1243 20.1665 24.1764 19.3644 22.5723 17.7603C20.9681 16.1561 20.166 14.2082 20.166 11.9165C20.166 9.62484 20.9681 7.67692 22.5723 6.07275C24.1764 4.46859 26.1243 3.6665 28.416 3.6665C30.7077 3.6665 32.6556 4.46859 34.2598 6.07275C35.8639 7.67692 36.666 9.62484 36.666 11.9165C36.666 12.7415 36.5438 13.5207 36.2994 14.254C36.0549 14.9873 35.7494 15.6748 35.3827 16.3165ZM28.416 16.4998C29.6993 16.4998 30.7841 16.0568 31.6702 15.1707C32.5563 14.2846 32.9993 13.1998 32.9993 11.9165C32.9993 10.6332 32.5563 9.54845 31.6702 8.66234C30.7841 7.77623 29.6993 7.33317 28.416 7.33317C27.1327 7.33317 26.048 7.77623 25.1618 8.66234C24.2757 9.54845 23.8327 10.6332 23.8327 11.9165C23.8327 13.1998 24.2757 14.2846 25.1618 15.1707C26.048 16.0568 27.1327 16.4998 28.416 16.4998ZM7.33268 36.6665V10.9998V23.8332V23.2832V36.6665Z" fill="#1C1B1F"/>
</g>
</svg>
